<?xml version="1.0" standalone="no"?>
<!DOCTYPE svg PUBLIC "-//W3C//DTD SVG 20010904//EN"
 "http://www.w3.org/TR/2001/REC-SVG-20010904/DTD/svg10.dtd">
<svg version="1.0" xmlns="http://www.w3.org/2000/svg"
 width="300.000000pt" height="234.000000pt" viewBox="0 0 300.000000 234.000000"
 preserveAspectRatio="xMidYMid meet">

<g transform="translate(0.000000,234.000000) scale(0.100000,-0.100000)"
fill="#000000" stroke="none">
<path d="M1004 1980 c-238 -62 -439 -260 -499 -491 -31 -117 -11 -256 48 -341
10 -15 4 -25 -39 -67 -189 -180 -219 -428 -70 -576 83 -82 173 -115 321 -115
162 0 310 57 415 159 63 62 80 101 80 186 -1 175 -158 221 -269 79 -60 -77
-182 -143 -238 -130 -23 6 -24 10 -18 44 10 53 31 89 84 141 55 55 148 106
219 122 28 6 63 19 76 30 50 39 58 138 17 191 l-19 23 62 0 c44 0 74 6 110 24
87 43 195 168 232 270 10 25 18 47 20 49 1 2 19 -3 40 -9 l39 -12 -43 -84
c-131 -253 -262 -655 -262 -808 0 -77 24 -128 84 -183 78 -72 123 -87 251 -87
94 0 122 4 191 28 96 33 234 110 321 179 146 116 307 315 374 464 83 183 105
407 55 557 -14 42 -37 94 -50 115 -44 70 -124 139 -209 181 -125 62 -195 75
-382 75 -184 0 -300 -21 -411 -74 l-65 -32 -32 25 c-111 84 -273 109 -433 67z
m336 -106 c144 -81 160 -259 37 -417 -97 -125 -196 -168 -268 -116 -71 50 -63
90 33 159 139 102 193 179 169 242 -29 75 -193 55 -318 -39 -111 -84 -195
-214 -215 -335 -14 -78 0 -128 44 -161 25 -18 31 -19 86 -7 98 20 167 -14 160
-81 -3 -30 -7 -33 -63 -49 -192 -52 -355 -214 -355 -353 0 -170 209 -159 386
20 55 56 79 74 96 71 33 -4 51 -50 43 -105 -14 -92 -152 -188 -314 -220 -149
-29 -300 10 -371 95 -30 37 -60 118 -60 163 0 43 37 146 69 193 41 59 134 144
181 165 l40 18 -37 24 c-50 32 -100 117 -108 184 -23 183 121 416 326 525 89
47 150 60 274 57 102 -2 114 -4 165 -33z m803 20 c363 -80 486 -408 301 -803
-97 -206 -274 -396 -479 -514 -222 -127 -424 -135 -524 -21 -50 56 -56 100
-31 218 47 219 178 563 284 745 51 86 73 101 148 101 46 0 106 -23 114 -45 4
-8 -13 -45 -39 -87 -131 -213 -286 -593 -318 -782 -17 -99 -11 -110 48 -102
166 22 430 240 563 464 85 143 127 317 109 450 -21 154 -123 241 -294 250
-122 6 -260 -34 -344 -99 -83 -65 -236 64 -166 140 70 78 435 128 628 85z
m-929 -216 c-29 -34 -75 -73 -142 -122 -70 -52 -92 -87 -92 -149 0 -32 7 -54
28 -83 l28 -39 -89 0 -89 0 5 57 c14 159 201 355 341 357 29 1 29 1 10 -21z
m937 -33 c84 -60 109 -172 71 -323 -38 -150 -108 -267 -241 -405 -81 -84 -245
-207 -277 -207 -22 0 -17 25 36 181 72 213 157 401 247 545 24 40 48 86 53
104 12 41 -7 88 -46 119 l-29 23 72 -4 c60 -3 79 -9 114 -33z"/>
</g>
</svg>
